<svg xmlns="http://www.w3.org/2000/svg" xmlns:xlink="http://www.w3.org/1999/xlink" id="Layer_1" x="0" y="0" version="1.1" viewBox="0 0 120 120" xml:space="preserve"><style>.st3{fill:none;stroke:#e91e63;stroke-width:2;stroke-linecap:round;stroke-linejoin:round}.st8{fill:none;stroke:#212121;stroke-width:1.5;stroke-linecap:square}.st10{fill:silver}</style><g id="Secure_Multi-Tenant_and_Multi-User_Environment"><circle id="back_x5F_circle_8_" cx="60" cy="60" r="50" fill="#f0f0f0" stroke="#777" stroke-dasharray="1,4" stroke-linecap="square" stroke-width="2"/><g id="pic_5_"><path fill="#fdd835" stroke="#212121" stroke-linecap="round" stroke-linejoin="round" stroke-width="1.5" d="M51 53v58l8 8 8-8v-5l-6-5 6-4.9-5-5.1 5-4.9-5-5.1 7-4.9V53z"/><path fill="#fbc02d" stroke="#212121" stroke-linecap="round" stroke-linejoin="round" stroke-width="1.5" d="M57 63v54l-6-6V63z"/><path d="M99 80L60 30M60 30L21 80" class="st3"/><path fill="#607d8b" stroke="#212121" stroke-linecap="round" stroke-linejoin="round" stroke-width="1.5" d="M48 53h24v15H48z"/><circle cx="60" cy="40" r="23" fill="#607d8b" stroke="#212121" stroke-linecap="square" stroke-width="1.5"/><defs><circle id="SVGID_1_" cx="60" cy="40" r="23"/></defs><clipPath id="SVGID_2_"><use overflow="visible" xlink:href="#SVGID_1_"/></clipPath><path fill="none" stroke="#37474f" stroke-dasharray="3,2" stroke-linejoin="round" stroke-width="2" d="M99 80L60 30" clip-path="url(#SVGID_2_)"/><path fill="none" stroke="#37474f" stroke-linecap="square" stroke-linejoin="round" stroke-width="2" d="M60 30L21 80" clip-path="url(#SVGID_2_)"/><circle cx="60" cy="40" r="23" class="st8"/><circle cx="60" cy="30" r="6.5" fill="#f0f0f0" stroke="#212121" stroke-linecap="square" stroke-width="1.5"/><g id="user"><circle cx="21" cy="80" r="16" class="st10"/><defs><circle id="SVGID_3_" cx="21" cy="80" r="16"/></defs><clipPath id="SVGID_4_"><use overflow="visible" xlink:href="#SVGID_3_"/></clipPath><circle cx="21" cy="75" r="5.5" fill="#ffe0b2" stroke="#212121" stroke-linecap="square" stroke-width="1.5" clip-path="url(#SVGID_4_)"/><path fill="#1e88e5" stroke="#212121" stroke-linecap="square" stroke-width="1.5" d="M30 92.5c0 6.9-4 15.5-9 15.5s-9-8.6-9-15.5 4-9.5 9-9.5 9 2.6 9 9.5z" clip-path="url(#SVGID_4_)"/><circle cx="21" cy="80" r="16" class="st8"/></g><g id="user_1_"><circle cx="99" cy="80" r="16" class="st10"/><defs><circle id="SVGID_5_" cx="99" cy="80" r="16"/></defs><clipPath id="SVGID_6_"><use overflow="visible" xlink:href="#SVGID_5_"/></clipPath><circle cx="99" cy="75" r="5.5" fill="#ffe0b2" stroke="#212121" stroke-linecap="square" stroke-width="1.5" clip-path="url(#SVGID_6_)"/><path fill="#1e88e5" stroke="#212121" stroke-linecap="square" stroke-width="1.5" d="M108 92.5c0 6.9-4 15.5-9 15.5s-9-8.6-9-15.5 4-9.5 9-9.5 9 2.6 9 9.5z" clip-path="url(#SVGID_6_)"/><circle cx="99" cy="80" r="16" class="st8"/></g></g></g></svg>